<?xml version="1.0" encoding="UTF-8" standalone="no"?>
<!-- Created with Inkscape (http://www.inkscape.org/) -->

<svg
   width="1920"
   height="1080"
   viewBox="0 0 1920 1080"
   version="1.1"
   id="svg32"
   inkscape:version="1.2.2 (732a01da63, 2022-12-09)"
   sodipodi:docname="Shell.svg"
   inkscape:export-filename="..\..\Immagini\Shell.png"
   inkscape:export-xdpi="150"
   inkscape:export-ydpi="150"
   xmlns:inkscape="http://www.inkscape.org/namespaces/inkscape"
   xmlns:sodipodi="http://sodipodi.sourceforge.net/DTD/sodipodi-0.dtd"
   xmlns:xlink="http://www.w3.org/1999/xlink"
   xmlns="http://www.w3.org/2000/svg"
   xmlns:svg="http://www.w3.org/2000/svg"
   xmlns:rdf="http://www.w3.org/1999/02/22-rdf-syntax-ns#"
   xmlns:cc="http://creativecommons.org/ns#"
   xmlns:dc="http://purl.org/dc/elements/1.1/">
  <title
     id="title507">sHellPower</title>
  <defs
     id="defs26">
    <linearGradient
       inkscape:collect="always"
       id="linearGradient1000">
      <stop
         style="stop-color:#00ccff;stop-opacity:1;"
         offset="0"
         id="stop996" />
      <stop
         style="stop-color:#000000;stop-opacity:1"
         offset="0.5"
         id="stop998" />
    </linearGradient>
    <rect
       x="308.57143"
       y="225.71429"
       width="640"
       height="565.71429"
       id="rect184" />
    <filter
       inkscape:collect="always"
       style="color-interpolation-filters:sRGB"
       id="filter1194"
       x="-0.080889148"
       y="-0.076632198"
       width="1.1617783"
       height="1.1532644">
      <feGaussianBlur
         inkscape:collect="always"
         stdDeviation="3.033335"
         id="feGaussianBlur1196" />
    </filter>
    <filter
       inkscape:collect="always"
       style="color-interpolation-filters:sRGB"
       id="filter930"
       x="-0.028306452"
       y="-0.025808824"
       width="1.0566129"
       height="1.0516176">
      <feGaussianBlur
         inkscape:collect="always"
         stdDeviation="1.828125"
         id="feGaussianBlur932" />
    </filter>
    <linearGradient
       inkscape:collect="always"
       xlink:href="#linearGradient1000"
       id="linearGradient1002"
       x1="292.22815"
       y1="160.34602"
       x2="250.25179"
       y2="160.34602"
       gradientUnits="userSpaceOnUse" />
    <clipPath
       clipPathUnits="userSpaceOnUse"
       id="clipPath503">
      <rect
         style="font-variation-settings:'opsz' 36, 'wght' 341;fill:none;stroke:#000000;stroke-width:0.899999;stop-color:#000000"
         id="rect505"
         width="1919.9998"
         height="1079.9999"
         x="5.9511312e-05"
         y="-8.592254e-05"
         ry="8.592254e-05" />
    </clipPath>
  </defs>
  <sodipodi:namedview
     id="base"
     pagecolor="#ffffff"
     bordercolor="#000000"
     borderopacity="0.30"
     inkscape:pageopacity="0.0"
     inkscape:pageshadow="2"
     inkscape:zoom="0.175"
     inkscape:cx="940"
     inkscape:cy="285.71429"
     inkscape:document-units="px"
     inkscape:current-layer="layer1"
     inkscape:pagecheckerboard="0"
     inkscape:deskcolor="#d1d1d1"
     showgrid="true"
     inkscape:window-width="1920"
     inkscape:window-height="1057"
     inkscape:window-x="-8"
     inkscape:window-y="-8"
     inkscape:window-maximized="1"
     inkscape:showpageshadow="2">
    <inkscape:grid
       type="xygrid"
       id="grid557" />
  </sodipodi:namedview>
  <metadata
     id="metadata29">
    <rdf:RDF>
      <cc:Work
         rdf:about="">
        <dc:format>image/svg+xml</dc:format>
        <dc:type
           rdf:resource="http://purl.org/dc/dcmitype/StillImage" />
        <dc:title>sHellPower</dc:title>
        <dc:date>28 JAN 2023</dc:date>
        <dc:creator>
          <cc:Agent>
            <dc:title>Michele Brami (aka 77nn)</dc:title>
          </cc:Agent>
        </dc:creator>
        <dc:rights>
          <cc:Agent>
            <dc:title>CreativeCommons CC-BY-4.0 International</dc:title>
          </cc:Agent>
        </dc:rights>
        <dc:publisher>
          <cc:Agent>
            <dc:title>77nn.it</dc:title>
          </cc:Agent>
        </dc:publisher>
        <dc:subject>
          <rdf:Bag>
            <rdf:li>Powershell</rdf:li>
            <rdf:li>scripting</rdf:li>
          </rdf:Bag>
        </dc:subject>
        <cc:license
           rdf:resource="http://creativecommons.org/licenses/by/4.0/" />
      </cc:Work>
      <cc:License
         rdf:about="http://creativecommons.org/licenses/by/4.0/">
        <cc:permits
           rdf:resource="http://creativecommons.org/ns#Reproduction" />
        <cc:permits
           rdf:resource="http://creativecommons.org/ns#Distribution" />
        <cc:requires
           rdf:resource="http://creativecommons.org/ns#Notice" />
        <cc:requires
           rdf:resource="http://creativecommons.org/ns#Attribution" />
        <cc:permits
           rdf:resource="http://creativecommons.org/ns#DerivativeWorks" />
      </cc:License>
    </rdf:RDF>
  </metadata>
  <g
     inkscape:label="Layer 1"
     inkscape:groupmode="layer"
     id="layer1">
    <g
       id="g501"
       clip-path="url(#clipPath503)">
      <rect
         style="opacity:0.8;fill:#00ccff;stroke-width:15;stroke-linecap:round;stroke-linejoin:round;stroke-dasharray:none;filter:url(#filter930);stop-color:#000000"
         id="rect374"
         width="155"
         height="170"
         x="295"
         y="60"
         ry="10"
         transform="matrix(15.246679,0,0,15.246679,-3775.5087,-1924.7443)" />
      <g
         id="g470"
         transform="matrix(15.246679,0,0,15.246679,-3775.5087,-1924.7443)">
        <rect
           style="font-variation-settings:'opsz' 36, 'wght' 341;opacity:0.8;fill:url(#linearGradient1002);fill-opacity:1;stroke-width:0.0590292;stop-color:#000000"
           id="rect934"
           width="125.92905"
           height="70.835091"
           x="247.62827"
           y="126.24023"
           ry="5.635492e-06" />
        <rect
           style="opacity:0.8;fill:#00ccff;stroke-width:15;stroke-linecap:round;stroke-linejoin:round;stroke-dasharray:none;stop-color:#000000"
           id="rect1178"
           width="155"
           height="170"
           x="295"
           y="60"
           ry="10" />
      </g>
      <g
         id="g1182"
         style="fill:#f9f9f9"
         transform="matrix(15.246679,0,0,15.246679,-3775.5087,-1924.7443)">
        <path
           style="color:#000000;fill:#f9f9f9;stroke-linecap:round;stroke-linejoin:round"
           d="m 318.5293,112.64648 a 7.5,7.5 0 0 0 -4.76953,3.19336 7.5,7.5 0 0 0 2.08007,10.40039 L 366.48047,160 315.83984,193.75977 a 7.5,7.5 0 0 0 -2.08007,10.40039 7.5,7.5 0 0 0 10.40039,2.08007 l 60,-40 a 7.50075,7.50075 0 0 0 0,-12.48046 l -60,-40 a 7.5,7.5 0 0 0 -5.63086,-1.11329 z"
           id="path559" />
        <path
           style="color:#000000;fill:#f9f9f9;stroke-linecap:round;stroke-linejoin:round"
           d="m 355,192.5 a 7.5,7.5 0 0 0 -7.5,7.5 7.5,7.5 0 0 0 7.5,7.5 h 40 a 7.5,7.5 0 0 0 7.5,-7.5 7.5,7.5 0 0 0 -7.5,-7.5 z"
           id="path561" />
      </g>
      <g
         id="g1188"
         style="opacity:0.960366;fill:#ffffff;filter:url(#filter1194)"
         transform="matrix(15.246679,0,0,15.246679,-3775.5087,-1924.7443)">
        <path
           style="color:#000000;fill:#ffffff;stroke-linecap:round;stroke-linejoin:round"
           d="m 318.5293,112.64648 a 7.5,7.5 0 0 0 -4.76953,3.19336 7.5,7.5 0 0 0 2.08007,10.40039 L 366.48047,160 315.83984,193.75977 a 7.5,7.5 0 0 0 -2.08007,10.40039 7.5,7.5 0 0 0 10.40039,2.08007 l 60,-40 a 7.50075,7.50075 0 0 0 0,-12.48046 l -60,-40 a 7.5,7.5 0 0 0 -5.63086,-1.11329 z"
           id="path1184" />
        <path
           style="color:#000000;fill:#ffffff;stroke-linecap:round;stroke-linejoin:round"
           d="m 355,192.5 a 7.5,7.5 0 0 0 -7.5,7.5 7.5,7.5 0 0 0 7.5,7.5 h 40 a 7.5,7.5 0 0 0 7.5,-7.5 7.5,7.5 0 0 0 -7.5,-7.5 z"
           id="path1186" />
      </g>
    </g>
  </g>
</svg>
