<?xml version="1.0" encoding="UTF-8" standalone="no"?>
<svg
   width="25"
   height="35"
   viewBox="0 0 8 10"
   version="1.1"
   id="svg3409"
   sodipodi:docname="listpoint.svg"
   inkscape:version="1.1.2 (0a00cf5339, 2022-02-04)"
   xmlns:inkscape="http://www.inkscape.org/namespaces/inkscape"
   xmlns:sodipodi="http://sodipodi.sourceforge.net/DTD/sodipodi-0.dtd"
   xmlns="http://www.w3.org/2000/svg"
   xmlns:svg="http://www.w3.org/2000/svg">
  <sodipodi:namedview
     id="namedview66"
     pagecolor="#ffffff"
     bordercolor="#666666"
     borderopacity="1.0"
     inkscape:pageshadow="2"
     inkscape:pageopacity="0.0"
     inkscape:pagecheckerboard="0"
     showgrid="true"
     inkscape:zoom="18.879751"
     inkscape:cx="14.195102"
     inkscape:cy="18.882664"
     inkscape:window-width="1920"
     inkscape:window-height="1011"
     inkscape:window-x="0"
     inkscape:window-y="0"
     inkscape:window-maximized="1"
     inkscape:current-layer="svg3409"
     inkscape:snap-nodes="false"
     inkscape:snap-bbox="true"
     inkscape:bbox-nodes="true">
    <inkscape:grid
       type="xygrid"
       id="grid964" />
  </sodipodi:namedview>
  <defs
     id="defs3406" />
  <path
     id="path1187"
     style="font-variation-settings:normal;opacity:1;vector-effect:none;fill:#dddddd;fill-opacity:1;stroke:#dddddd;stroke-width:0.264583;stroke-linecap:round;stroke-linejoin:round;stroke-miterlimit:4;stroke-dasharray:none;stroke-dashoffset:1.75;stroke-opacity:0.2;-inkscape-stroke:none;stop-color:#000000;stop-opacity:1"
     d="M 6.6145832,5.9531252 A 0.66145831,0.66145831 0 0 1 5.9531249,6.6145834 0.66145831,0.66145831 0 0 1 5.2916666,5.9531252 0.66145831,0.66145831 0 0 1 5.9531249,5.2916669 0.66145831,0.66145831 0 0 1 6.6145832,5.9531252 Z" />
  <path
     id="path925"
     style="font-variation-settings:normal;opacity:1;vector-effect:none;fill:#dddddd;fill-opacity:1;stroke:#dddddd;stroke-width:0.264583;stroke-linecap:round;stroke-linejoin:round;stroke-miterlimit:4;stroke-dasharray:none;stroke-dashoffset:1.75;stroke-opacity:0.2;-inkscape-stroke:none;stop-color:#000000;stop-opacity:1"
     d="M 5.2916665,4.6302085 A 0.66145831,0.66145831 0 0 1 4.6302082,5.2916667 0.66145831,0.66145831 0 0 1 3.9687499,4.6302085 0.66145831,0.66145831 0 0 1 4.6302082,3.9687502 0.66145831,0.66145831 0 0 1 5.2916665,4.6302085 Z" />
  <path
     id="path927"
     style="font-variation-settings:normal;opacity:1;vector-effect:none;fill:#dddddd;fill-opacity:1;stroke:#dddddd;stroke-width:0.264583;stroke-linecap:round;stroke-linejoin:round;stroke-miterlimit:4;stroke-dasharray:none;stroke-dashoffset:1.75;stroke-opacity:0.2;-inkscape-stroke:none;stop-color:#000000;stop-opacity:1"
     d="M 5.2916665,5.9531252 A 0.66145831,0.66145831 0 0 1 4.6302082,6.6145834 0.66145831,0.66145831 0 0 1 3.9687499,5.9531252 0.66145831,0.66145831 0 0 1 4.6302082,5.2916669 0.66145831,0.66145831 0 0 1 5.2916665,5.9531252 Z" />
  <path
     id="path929"
     style="font-variation-settings:normal;opacity:1;vector-effect:none;fill:#dddddd;fill-opacity:1;stroke:#dddddd;stroke-width:0.264583;stroke-linecap:round;stroke-linejoin:round;stroke-miterlimit:4;stroke-dasharray:none;stroke-dashoffset:1.75;stroke-opacity:0.2;-inkscape-stroke:none;stop-color:#000000;stop-opacity:1"
     d="M 5.2916665,7.2760418 A 0.66145831,0.66145831 0 0 1 4.6302082,7.9375 0.66145831,0.66145831 0 0 1 3.9687499,7.2760418 0.66145831,0.66145831 0 0 1 4.6302082,6.6145835 0.66145831,0.66145831 0 0 1 5.2916665,7.2760418 Z" />
  <path
     id="path931"
     style="font-variation-settings:normal;opacity:1;vector-effect:none;fill:#dddddd;fill-opacity:1;stroke:#dddddd;stroke-width:0.264583;stroke-linecap:round;stroke-linejoin:round;stroke-miterlimit:4;stroke-dasharray:none;stroke-dashoffset:1.75;stroke-opacity:0.2;-inkscape-stroke:none;stop-color:#000000;stop-opacity:1"
     d="M 3.9687499,4.6302084 A 0.66145831,0.66145831 0 0 1 3.3072916,5.2916666 0.66145831,0.66145831 0 0 1 2.6458333,4.6302084 0.66145831,0.66145831 0 0 1 3.3072916,3.9687501 0.66145831,0.66145831 0 0 1 3.9687499,4.6302084 Z" />
  <path
     id="path933"
     style="font-variation-settings:normal;opacity:1;vector-effect:none;fill:#dddddd;fill-opacity:1;stroke:#dddddd;stroke-width:0.264583;stroke-linecap:round;stroke-linejoin:round;stroke-miterlimit:4;stroke-dasharray:none;stroke-dashoffset:1.75;stroke-opacity:0.2;-inkscape-stroke:none;stop-color:#000000;stop-opacity:1"
     d="M 3.9687499,7.2760418 A 0.66145831,0.66145831 0 0 1 3.3072916,7.9375 0.66145831,0.66145831 0 0 1 2.6458333,7.2760418 0.66145831,0.66145831 0 0 1 3.3072916,6.6145835 0.66145831,0.66145831 0 0 1 3.9687499,7.2760418 Z" />
  <path
     id="path935"
     style="font-variation-settings:normal;opacity:1;vector-effect:none;fill:#dddddd;fill-opacity:1;stroke:#dddddd;stroke-width:0.264583;stroke-linecap:round;stroke-linejoin:round;stroke-miterlimit:4;stroke-dasharray:none;stroke-dashoffset:1.75;stroke-opacity:0.2;-inkscape-stroke:none;stop-color:#000000;stop-opacity:1"
     d="M 3.9687499,8.5989583 A 0.66145831,0.66145831 0 0 1 3.3072916,9.2604165 0.66145831,0.66145831 0 0 1 2.6458333,8.5989583 0.66145831,0.66145831 0 0 1 3.3072916,7.9375 0.66145831,0.66145831 0 0 1 3.9687499,8.5989583 Z" />
  <path
     id="path937"
     style="font-variation-settings:normal;opacity:1;vector-effect:none;fill:#dddddd;fill-opacity:1;stroke:#dddddd;stroke-width:0.264583;stroke-linecap:round;stroke-linejoin:round;stroke-miterlimit:4;stroke-dasharray:none;stroke-dashoffset:1.75;stroke-opacity:0.2;-inkscape-stroke:none;stop-color:#000000;stop-opacity:1"
     d="M 2.6458333,8.5989583 A 0.66145831,0.66145831 0 0 1 1.984375,9.2604165 0.66145831,0.66145831 0 0 1 1.3229167,8.5989583 0.66145831,0.66145831 0 0 1 1.984375,7.9375 0.66145831,0.66145831 0 0 1 2.6458333,8.5989583 Z" />
  <path
     id="path939"
     style="font-variation-settings:normal;opacity:1;vector-effect:none;fill:#dddddd;fill-opacity:1;stroke:#dddddd;stroke-width:0.264583;stroke-linecap:round;stroke-linejoin:round;stroke-miterlimit:4;stroke-dasharray:none;stroke-dashoffset:1.75;stroke-opacity:0.2;-inkscape-stroke:none;stop-color:#000000;stop-opacity:1"
     d="M 3.9687499,3.3072919 A 0.66145831,0.66145831 0 0 1 3.3072916,3.9687501 0.66145831,0.66145831 0 0 1 2.6458333,3.3072919 0.66145831,0.66145831 0 0 1 3.3072916,2.6458336 0.66145831,0.66145831 0 0 1 3.9687499,3.3072919 Z" />
  <path
     id="path941"
     style="font-variation-settings:normal;opacity:1;vector-effect:none;fill:#dddddd;fill-opacity:1;stroke:#dddddd;stroke-width:0.264583;stroke-linecap:round;stroke-linejoin:round;stroke-miterlimit:4;stroke-dasharray:none;stroke-dashoffset:1.75;stroke-opacity:0.2;-inkscape-stroke:none;stop-color:#000000;stop-opacity:1"
     d="M 2.6458333,3.3072919 A 0.66145831,0.66145831 0 0 1 1.984375,3.9687501 0.66145831,0.66145831 0 0 1 1.3229167,3.3072919 0.66145831,0.66145831 0 0 1 1.984375,2.6458336 0.66145831,0.66145831 0 0 1 2.6458333,3.3072919 Z" />
</svg>
