<?xml version="1.0" encoding="UTF-8" standalone="no"?>

<svg
   width="80"
   height="60"
   viewBox="0 0 21.166666 15.875"
   version="1.1"
   id="svg3409"
   xmlns="http://www.w3.org/2000/svg"
   xmlns:svg="http://www.w3.org/2000/svg">
  <defs
     id="defs3406" />
  <g
     id="layer1">
    <path
       id="circle1736"
       style="fill:#dddddd;fill-opacity:1;stroke:#dddddd;stroke-width:0.264583;stroke-linecap:round;stroke-linejoin:round;stroke-miterlimit:4;stroke-dasharray:none;stroke-dashoffset:1.75;stroke-opacity:0.2"
       d="M 7.9375005,4.2333335 A 0.66145831,0.66145831 0 0 1 7.2760422,4.8947918 0.66145831,0.66145831 0 0 1 6.6145839,4.2333335 0.66145831,0.66145831 0 0 1 7.2760422,3.5718752 0.66145831,0.66145831 0 0 1 7.9375005,4.2333335 Z" />
    <path
       id="circle3639"
       style="fill:#dddddd;fill-opacity:1;stroke:#dddddd;stroke-width:0.264583;stroke-linecap:round;stroke-linejoin:round;stroke-miterlimit:4;stroke-dasharray:none;stroke-dashoffset:1.75;stroke-opacity:0.2"
       d="M 9.260417,4.233334 A 0.66145831,0.66145831 0 0 1 8.5989587,4.8947923 0.66145831,0.66145831 0 0 1 7.9375004,4.233334 0.66145831,0.66145831 0 0 1 8.5989587,3.5718757 0.66145831,0.66145831 0 0 1 9.260417,4.233334 Z" />
    <path
       id="circle4193"
       style="fill:#dddddd;fill-opacity:1;stroke:#dddddd;stroke-width:0.264583;stroke-linecap:round;stroke-linejoin:round;stroke-miterlimit:4;stroke-dasharray:none;stroke-dashoffset:1.75;stroke-opacity:0.2"
       d="M 10.583334,1.5875005 A 0.66145831,0.66145831 0 0 1 9.9218761,2.2489588 0.66145831,0.66145831 0 0 1 9.2604174,1.5875005 0.66145831,0.66145831 0 0 1 9.9218761,0.92604227 0.66145831,0.66145831 0 0 1 10.583334,1.5875005 Z" />
    <path
       id="circle4195"
       style="fill:#dddddd;fill-opacity:1;stroke:#dddddd;stroke-width:0.264583;stroke-linecap:round;stroke-linejoin:round;stroke-miterlimit:4;stroke-dasharray:none;stroke-dashoffset:1.75;stroke-opacity:0.2"
       d="M 11.90625,1.5875005 A 0.66145831,0.66145831 0 0 1 11.244792,2.2489588 0.66145831,0.66145831 0 0 1 10.583334,1.5875005 0.66145831,0.66145831 0 0 1 11.244792,0.92604227 0.66145831,0.66145831 0 0 1 11.90625,1.5875005 Z" />
    <path
       id="circle4197"
       style="fill:#dddddd;fill-opacity:1;stroke:#dddddd;stroke-width:0.264583;stroke-linecap:round;stroke-linejoin:round;stroke-miterlimit:4;stroke-dasharray:none;stroke-dashoffset:1.75;stroke-opacity:0.2"
       d="M 13.229167,1.5875005 A 0.66145831,0.66145831 0 0 1 12.567709,2.2489588 0.66145831,0.66145831 0 0 1 11.906251,1.5875005 0.66145831,0.66145831 0 0 1 12.567709,0.92604227 0.66145831,0.66145831 0 0 1 13.229167,1.5875005 Z" />
    <path
       id="circle4199"
       d="M 9.260417,1.5875005 A 0.66145831,0.66145831 0 0 1 8.5989587,2.2489588 0.66145831,0.66145831 0 0 1 7.9375004,1.5875005 0.66145831,0.66145831 0 0 1 8.5989587,0.92604227 0.66145831,0.66145831 0 0 1 9.260417,1.5875005 Z"
       style="fill:#dddddd;fill-opacity:1;stroke:#dddddd;stroke-width:0.264583;stroke-linecap:round;stroke-linejoin:round;stroke-miterlimit:4;stroke-dasharray:none;stroke-dashoffset:1.75;stroke-opacity:0.2" />
    <path
       id="circle4201"
       style="fill:#dddddd;fill-opacity:1;stroke:#dddddd;stroke-width:0.264583;stroke-linecap:round;stroke-linejoin:round;stroke-miterlimit:4;stroke-dasharray:none;stroke-dashoffset:1.75;stroke-opacity:0.2"
       d="M 7.9375005,1.5875005 A 0.66145831,0.66145831 0 0 1 7.2760422,2.2489588 0.66145831,0.66145831 0 0 1 6.6145839,1.5875005 0.66145831,0.66145831 0 0 1 7.2760422,0.92604227 0.66145831,0.66145831 0 0 1 7.9375005,1.5875005 Z" />
    <path
       id="circle4203"
       style="fill:#dddddd;fill-opacity:1;stroke:#dddddd;stroke-width:0.264583;stroke-linecap:round;stroke-linejoin:round;stroke-miterlimit:4;stroke-dasharray:none;stroke-dashoffset:1.75;stroke-opacity:0.2"
       d="M 6.614584,1.5875005 A 0.66145831,0.66145831 0 0 1 5.9531257,2.2489588 0.66145831,0.66145831 0 0 1 5.2916674,1.5875005 0.66145831,0.66145831 0 0 1 5.9531257,0.92604227 0.66145831,0.66145831 0 0 1 6.614584,1.5875005 Z" />
    <path
       id="circle4205"
       style="fill:#dddddd;fill-opacity:1;stroke:#dddddd;stroke-width:0.264583;stroke-linecap:round;stroke-linejoin:round;stroke-miterlimit:4;stroke-dasharray:none;stroke-dashoffset:1.75;stroke-opacity:0.2"
       d="M 14.552083,1.5875005 A 0.66145831,0.66145831 0 0 1 13.890625,2.2489588 0.66145831,0.66145831 0 0 1 13.229168,1.5875005 0.66145831,0.66145831 0 0 1 13.890625,0.92604227 0.66145831,0.66145831 0 0 1 14.552083,1.5875005 Z" />
    <path
       id="circle4207"
       style="fill:#dddddd;fill-opacity:1;stroke:#dddddd;stroke-width:0.264583;stroke-linecap:round;stroke-linejoin:round;stroke-miterlimit:4;stroke-dasharray:none;stroke-dashoffset:1.75;stroke-opacity:0.2"
       d="M 15.874999,1.5875005 A 0.66145831,0.66145831 0 0 1 15.213541,2.2489588 0.66145831,0.66145831 0 0 1 14.552083,1.5875005 0.66145831,0.66145831 0 0 1 15.213541,0.92604227 0.66145831,0.66145831 0 0 1 15.874999,1.5875005 Z" />
    <path
       id="circle4209"
       style="fill:#dddddd;fill-opacity:1;stroke:#dddddd;stroke-width:0.264583;stroke-linecap:round;stroke-linejoin:round;stroke-miterlimit:4;stroke-dasharray:none;stroke-dashoffset:1.75;stroke-opacity:0.2"
       d="M 18.520833,2.9104168 A 0.66145831,0.66145831 0 0 1 17.859375,3.5718751 0.66145831,0.66145831 0 0 1 17.197917,2.9104168 0.66145831,0.66145831 0 0 1 17.859375,2.2489585 0.66145831,0.66145831 0 0 1 18.520833,2.9104168 Z" />
    <path
       id="circle4211"
       style="fill:#dddddd;fill-opacity:1;stroke:#dddddd;stroke-width:0.264583;stroke-linecap:round;stroke-linejoin:round;stroke-miterlimit:4;stroke-dasharray:none;stroke-dashoffset:1.75;stroke-opacity:0.2"
       d="M 3.9687505,2.9104172 A 0.66145831,0.66145831 0 0 1 3.3072922,3.5718756 0.66145831,0.66145831 0 0 1 2.6458339,2.9104172 0.66145831,0.66145831 0 0 1 3.3072922,2.2489589 0.66145831,0.66145831 0 0 1 3.9687505,2.9104172 Z" />
    <path
       id="circle4213"
       style="fill:#dddddd;fill-opacity:1;stroke:#dddddd;stroke-width:0.264583;stroke-linecap:round;stroke-linejoin:round;stroke-miterlimit:4;stroke-dasharray:none;stroke-dashoffset:1.75;stroke-opacity:0.2"
       d="M 3.9687505,4.233334 A 0.66145831,0.66145831 0 0 1 3.3072922,4.8947923 0.66145831,0.66145831 0 0 1 2.6458339,4.233334 0.66145831,0.66145831 0 0 1 3.3072922,3.5718757 0.66145831,0.66145831 0 0 1 3.9687505,4.233334 Z" />
    <path
       id="circle4215"
       style="fill:#dddddd;fill-opacity:1;stroke:#dddddd;stroke-width:0.264583;stroke-linecap:round;stroke-linejoin:round;stroke-miterlimit:4;stroke-dasharray:none;stroke-dashoffset:1.75;stroke-opacity:0.2"
       d="M 18.520833,4.2333335 A 0.66145831,0.66145831 0 0 1 17.859375,4.8947918 0.66145831,0.66145831 0 0 1 17.197917,4.2333335 0.66145831,0.66145831 0 0 1 17.859375,3.5718752 0.66145831,0.66145831 0 0 1 18.520833,4.2333335 Z" />
    <path
       id="circle4217"
       style="fill:#dddddd;fill-opacity:1;stroke:#dddddd;stroke-width:0.264583;stroke-linecap:round;stroke-linejoin:round;stroke-miterlimit:4;stroke-dasharray:none;stroke-dashoffset:1.75;stroke-opacity:0.2"
       d="M 18.520833,5.5562505 A 0.66145831,0.66145831 0 0 1 17.859375,6.2177088 0.66145831,0.66145831 0 0 1 17.197917,5.5562505 0.66145831,0.66145831 0 0 1 17.859375,4.8947922 0.66145831,0.66145831 0 0 1 18.520833,5.5562505 Z" />
    <path
       id="circle4219"
       style="fill:#dddddd;fill-opacity:1;stroke:#dddddd;stroke-width:0.264583;stroke-linecap:round;stroke-linejoin:round;stroke-miterlimit:4;stroke-dasharray:none;stroke-dashoffset:1.75;stroke-opacity:0.2"
       d="M 18.520833,6.879167 A 0.66145831,0.66145831 0 0 1 17.859375,7.5406253 0.66145831,0.66145831 0 0 1 17.197917,6.879167 0.66145831,0.66145831 0 0 1 17.859375,6.2177087 0.66145831,0.66145831 0 0 1 18.520833,6.879167 Z" />
    <path
       id="circle4221"
       style="fill:#dddddd;fill-opacity:1;stroke:#dddddd;stroke-width:0.264583;stroke-linecap:round;stroke-linejoin:round;stroke-miterlimit:4;stroke-dasharray:none;stroke-dashoffset:1.75;stroke-opacity:0.2"
       d="M 18.520833,8.2020835 A 0.66145831,0.66145831 0 0 1 17.859375,8.8635418 0.66145831,0.66145831 0 0 1 17.197917,8.2020835 0.66145831,0.66145831 0 0 1 17.859375,7.5406252 0.66145831,0.66145831 0 0 1 18.520833,8.2020835 Z" />
    <path
       id="circle4223"
       style="fill:#dddddd;fill-opacity:1;stroke:#dddddd;stroke-width:0.264583;stroke-linecap:round;stroke-linejoin:round;stroke-miterlimit:4;stroke-dasharray:none;stroke-dashoffset:1.75;stroke-opacity:0.2"
       d="M 18.520833,9.5250005 A 0.66145831,0.66145831 0 0 1 17.859375,10.186458 0.66145831,0.66145831 0 0 1 17.197917,9.5250005 0.66145831,0.66145831 0 0 1 17.859375,8.8635422 0.66145831,0.66145831 0 0 1 18.520833,9.5250005 Z" />
    <path
       id="circle4225"
       style="fill:#dddddd;fill-opacity:1;stroke:#dddddd;stroke-width:0.264583;stroke-linecap:round;stroke-linejoin:round;stroke-miterlimit:4;stroke-dasharray:none;stroke-dashoffset:1.75;stroke-opacity:0.2"
       d="M 3.9687505,5.5562505 A 0.66145831,0.66145831 0 0 1 3.3072922,6.2177088 0.66145831,0.66145831 0 0 1 2.6458339,5.5562505 0.66145831,0.66145831 0 0 1 3.3072922,4.8947922 0.66145831,0.66145831 0 0 1 3.9687505,5.5562505 Z" />
    <path
       id="circle4227"
       style="fill:#dddddd;fill-opacity:1;stroke:#dddddd;stroke-width:0.264583;stroke-linecap:round;stroke-linejoin:round;stroke-miterlimit:4;stroke-dasharray:none;stroke-dashoffset:1.75;stroke-opacity:0.2"
       d="M 3.9687505,6.879167 A 0.66145831,0.66145831 0 0 1 3.3072922,7.5406253 0.66145831,0.66145831 0 0 1 2.6458339,6.879167 0.66145831,0.66145831 0 0 1 3.3072922,6.2177087 0.66145831,0.66145831 0 0 1 3.9687505,6.879167 Z" />
    <path
       id="circle4229"
       style="fill:#dddddd;fill-opacity:1;stroke:#dddddd;stroke-width:0.264583;stroke-linecap:round;stroke-linejoin:round;stroke-miterlimit:4;stroke-dasharray:none;stroke-dashoffset:1.75;stroke-opacity:0.2"
       d="M 3.9687505,8.2020835 A 0.66145831,0.66145831 0 0 1 3.3072922,8.8635418 0.66145831,0.66145831 0 0 1 2.6458339,8.2020835 0.66145831,0.66145831 0 0 1 3.3072922,7.5406252 0.66145831,0.66145831 0 0 1 3.9687505,8.2020835 Z" />
    <path
       id="circle4231"
       style="fill:#dddddd;fill-opacity:1;stroke:#dddddd;stroke-width:0.264583;stroke-linecap:round;stroke-linejoin:round;stroke-miterlimit:4;stroke-dasharray:none;stroke-dashoffset:1.75;stroke-opacity:0.2"
       d="M 3.9687505,9.5250005 A 0.66145831,0.66145831 0 0 1 3.3072922,10.186458 0.66145831,0.66145831 0 0 1 2.6458339,9.5250005 0.66145831,0.66145831 0 0 1 3.3072922,8.8635422 0.66145831,0.66145831 0 0 1 3.9687505,9.5250005 Z" />
    <path
       id="circle4233"
       style="fill:#dddddd;fill-opacity:1;stroke:#dddddd;stroke-width:0.264583;stroke-linecap:round;stroke-linejoin:round;stroke-miterlimit:4;stroke-dasharray:none;stroke-dashoffset:1.75;stroke-opacity:0.2"
       d="M 3.9687505,10.847917 A 0.66145831,0.66145831 0 0 1 3.3072922,11.509375 0.66145831,0.66145831 0 0 1 2.6458339,10.847917 0.66145831,0.66145831 0 0 1 3.3072922,10.186459 0.66145831,0.66145831 0 0 1 3.9687505,10.847917 Z" />
    <path
       id="circle4237"
       style="fill:#dddddd;fill-opacity:1;stroke:#dddddd;stroke-width:0.264583;stroke-linecap:round;stroke-linejoin:round;stroke-miterlimit:4;stroke-dasharray:none;stroke-dashoffset:1.75;stroke-opacity:0.2"
       d="m 18.520833,10.847917 a 0.66145831,0.66145831 0 0 1 -0.661458,0.661458 0.66145831,0.66145831 0 0 1 -0.661458,-0.661458 0.66145831,0.66145831 0 0 1 0.661458,-0.661458 0.66145831,0.66145831 0 0 1 0.661458,0.661458 z" />
    <path
       id="circle4241"
       style="fill:#dddddd;fill-opacity:1;stroke:#dddddd;stroke-width:0.264583;stroke-linecap:round;stroke-linejoin:round;stroke-miterlimit:4;stroke-dasharray:none;stroke-dashoffset:1.75;stroke-opacity:0.2"
       d="M 7.9375005,12.170833 A 0.66145831,0.66145831 0 0 1 7.2760422,12.832291 0.66145831,0.66145831 0 0 1 6.6145839,12.170833 0.66145831,0.66145831 0 0 1 7.2760422,11.509375 0.66145831,0.66145831 0 0 1 7.9375005,12.170833 Z" />
    <path
       id="circle4243"
       style="fill:#dddddd;fill-opacity:1;stroke:#dddddd;stroke-width:0.264583;stroke-linecap:round;stroke-linejoin:round;stroke-miterlimit:4;stroke-dasharray:none;stroke-dashoffset:1.75;stroke-opacity:0.2"
       d="M 6.614584,12.170833 A 0.66145831,0.66145831 0 0 1 5.9531257,12.832291 0.66145831,0.66145831 0 0 1 5.2916674,12.170833 0.66145831,0.66145831 0 0 1 5.9531257,11.509375 0.66145831,0.66145831 0 0 1 6.614584,12.170833 Z" />
    <path
       id="circle4245"
       style="fill:#dddddd;fill-opacity:1;stroke:#dddddd;stroke-width:0.264583;stroke-linecap:round;stroke-linejoin:round;stroke-miterlimit:4;stroke-dasharray:none;stroke-dashoffset:1.75;stroke-opacity:0.2"
       d="m 15.874999,12.170833 a 0.66145831,0.66145831 0 0 1 -0.661458,0.661458 0.66145831,0.66145831 0 0 1 -0.661458,-0.661458 0.66145831,0.66145831 0 0 1 0.661458,-0.661458 0.66145831,0.66145831 0 0 1 0.661458,0.661458 z" />
    <path
       id="circle4247"
       style="fill:#dddddd;fill-opacity:1;stroke:#dddddd;stroke-width:0.264583;stroke-linecap:round;stroke-linejoin:round;stroke-miterlimit:4;stroke-dasharray:none;stroke-dashoffset:1.75;stroke-opacity:0.2"
       d="m 14.552083,12.170833 a 0.66145831,0.66145831 0 0 1 -0.661458,0.661458 0.66145831,0.66145831 0 0 1 -0.661457,-0.661458 0.66145831,0.66145831 0 0 1 0.661457,-0.661458 0.66145831,0.66145831 0 0 1 0.661458,0.661458 z" />
    <path
       id="circle4249"
       style="fill:#dddddd;fill-opacity:1;stroke:#dddddd;stroke-width:0.264583;stroke-linecap:round;stroke-linejoin:round;stroke-miterlimit:4;stroke-dasharray:none;stroke-dashoffset:1.75;stroke-opacity:0.2"
       d="M 10.583334,12.170833 A 0.66145831,0.66145831 0 0 1 9.9218761,12.832291 0.66145831,0.66145831 0 0 1 9.2604174,12.170833 0.66145831,0.66145831 0 0 1 9.9218761,11.509375 0.66145831,0.66145831 0 0 1 10.583334,12.170833 Z" />
    <path
       id="circle4251"
       style="fill:#dddddd;fill-opacity:1;stroke:#dddddd;stroke-width:0.264583;stroke-linecap:round;stroke-linejoin:round;stroke-miterlimit:4;stroke-dasharray:none;stroke-dashoffset:1.75;stroke-opacity:0.2"
       d="m 11.90625,12.170833 a 0.66145831,0.66145831 0 0 1 -0.661458,0.661458 0.66145831,0.66145831 0 0 1 -0.661458,-0.661458 0.66145831,0.66145831 0 0 1 0.661458,-0.661458 0.66145831,0.66145831 0 0 1 0.661458,0.661458 z" />
    <path
       id="circle4253"
       style="fill:#dddddd;fill-opacity:1;stroke:#dddddd;stroke-width:0.264583;stroke-linecap:round;stroke-linejoin:round;stroke-miterlimit:4;stroke-dasharray:none;stroke-dashoffset:1.75;stroke-opacity:0.2"
       d="m 13.229167,12.170833 a 0.66145831,0.66145831 0 0 1 -0.661458,0.661458 0.66145831,0.66145831 0 0 1 -0.661458,-0.661458 0.66145831,0.66145831 0 0 1 0.661458,-0.661458 0.66145831,0.66145831 0 0 1 0.661458,0.661458 z" />
    <path
       id="circle4255"
       style="fill:#dddddd;fill-opacity:1;stroke:#dddddd;stroke-width:0.264583;stroke-linecap:round;stroke-linejoin:round;stroke-miterlimit:4;stroke-dasharray:none;stroke-dashoffset:1.75;stroke-opacity:0.2"
       d="M 9.260417,12.170833 A 0.66145831,0.66145831 0 0 1 8.5989587,12.832291 0.66145831,0.66145831 0 0 1 7.9375004,12.170833 0.66145831,0.66145831 0 0 1 8.5989587,11.509375 0.66145831,0.66145831 0 0 1 9.260417,12.170833 Z" />
    <path
       id="circle4417"
       style="fill:#dddddd;fill-opacity:1;stroke:#dddddd;stroke-width:0.264583;stroke-linecap:round;stroke-linejoin:round;stroke-miterlimit:4;stroke-dasharray:none;stroke-dashoffset:1.75;stroke-opacity:0.2"
       d="M 6.614584,4.233334 A 0.66145831,0.66145831 0 0 1 5.9531257,4.8947923 0.66145831,0.66145831 0 0 1 5.2916674,4.233334 0.66145831,0.66145831 0 0 1 5.9531257,3.5718757 0.66145831,0.66145831 0 0 1 6.614584,4.233334 Z" />
    <path
       id="circle4419"
       style="fill:#dddddd;fill-opacity:1;stroke:#dddddd;stroke-width:0.264583;stroke-linecap:round;stroke-linejoin:round;stroke-miterlimit:4;stroke-dasharray:none;stroke-dashoffset:1.75;stroke-opacity:0.2"
       d="M 11.90625,4.233334 A 0.66145831,0.66145831 0 0 1 11.244792,4.8947923 0.66145831,0.66145831 0 0 1 10.583334,4.233334 0.66145831,0.66145831 0 0 1 11.244792,3.5718757 0.66145831,0.66145831 0 0 1 11.90625,4.233334 Z" />
    <path
       id="circle4622"
       style="fill:#dddddd;fill-opacity:1;stroke:#dddddd;stroke-width:0.264583;stroke-linecap:round;stroke-linejoin:round;stroke-miterlimit:4;stroke-dasharray:none;stroke-dashoffset:1.75;stroke-opacity:0.2"
       d="M 13.229167,4.233334 A 0.66145831,0.66145831 0 0 1 12.567709,4.8947923 0.66145831,0.66145831 0 0 1 11.906251,4.233334 0.66145831,0.66145831 0 0 1 12.567709,3.5718757 0.66145831,0.66145831 0 0 1 13.229167,4.233334 Z" />
    <path
       id="circle4624"
       style="fill:#dddddd;fill-opacity:1;stroke:#dddddd;stroke-width:0.264583;stroke-linecap:round;stroke-linejoin:round;stroke-miterlimit:4;stroke-dasharray:none;stroke-dashoffset:1.75;stroke-opacity:0.2"
       d="M 15.874999,4.233334 A 0.66145831,0.66145831 0 0 1 15.213541,4.8947923 0.66145831,0.66145831 0 0 1 14.552083,4.233334 0.66145831,0.66145831 0 0 1 15.213541,3.5718757 0.66145831,0.66145831 0 0 1 15.874999,4.233334 Z" />
    <path
       id="circle4630"
       style="fill:#dddddd;fill-opacity:1;stroke:#dddddd;stroke-width:0.264583;stroke-linecap:round;stroke-linejoin:round;stroke-miterlimit:4;stroke-dasharray:none;stroke-dashoffset:1.75;stroke-opacity:0.2"
       d="M 14.552083,4.2333335 A 0.66145831,0.66145831 0 0 1 13.890625,4.8947918 0.66145831,0.66145831 0 0 1 13.229168,4.2333335 0.66145831,0.66145831 0 0 1 13.890625,3.5718752 0.66145831,0.66145831 0 0 1 14.552083,4.2333335 Z" />
    <path
       id="circle5192"
       style="fill:#dddddd;fill-opacity:1;stroke:#dddddd;stroke-width:0.264583;stroke-linecap:round;stroke-linejoin:round;stroke-miterlimit:4;stroke-dasharray:none;stroke-dashoffset:1.75;stroke-opacity:0.2"
       d="M 6.6145835,6.879167 A 0.66145831,0.66145831 0 0 1 5.9531252,7.5406253 0.66145831,0.66145831 0 0 1 5.2916669,6.879167 0.66145831,0.66145831 0 0 1 5.9531252,6.2177087 0.66145831,0.66145831 0 0 1 6.6145835,6.879167 Z" />
    <path
       id="circle5194"
       style="fill:#dddddd;fill-opacity:1;stroke:#dddddd;stroke-width:0.264583;stroke-linecap:round;stroke-linejoin:round;stroke-miterlimit:4;stroke-dasharray:none;stroke-dashoffset:1.75;stroke-opacity:0.2"
       d="M 7.9375005,6.879167 A 0.66145831,0.66145831 0 0 1 7.2760422,7.5406253 0.66145831,0.66145831 0 0 1 6.6145839,6.879167 0.66145831,0.66145831 0 0 1 7.2760422,6.2177087 0.66145831,0.66145831 0 0 1 7.9375005,6.879167 Z" />
    <path
       id="circle5196"
       style="fill:#dddddd;fill-opacity:1;stroke:#dddddd;stroke-width:0.264583;stroke-linecap:round;stroke-linejoin:round;stroke-miterlimit:4;stroke-dasharray:none;stroke-dashoffset:1.75;stroke-opacity:0.2"
       d="M 10.583334,6.879167 A 0.66145831,0.66145831 0 0 1 9.9218761,7.5406253 0.66145831,0.66145831 0 0 1 9.2604174,6.879167 0.66145831,0.66145831 0 0 1 9.9218761,6.2177087 0.66145831,0.66145831 0 0 1 10.583334,6.879167 Z" />
    <path
       id="circle5198"
       style="fill:#dddddd;fill-opacity:1;stroke:#dddddd;stroke-width:0.264583;stroke-linecap:round;stroke-linejoin:round;stroke-miterlimit:4;stroke-dasharray:none;stroke-dashoffset:1.75;stroke-opacity:0.2"
       d="M 9.260418,6.8791665 A 0.66145831,0.66145831 0 0 1 8.5989597,7.5406248 0.66145831,0.66145831 0 0 1 7.9375014,6.8791665 0.66145831,0.66145831 0 0 1 8.5989597,6.2177082 0.66145831,0.66145831 0 0 1 9.260418,6.8791665 Z" />
    <path
       id="circle5200"
       style="fill:#dddddd;fill-opacity:1;stroke:#dddddd;stroke-width:0.264583;stroke-linecap:round;stroke-linejoin:round;stroke-miterlimit:4;stroke-dasharray:none;stroke-dashoffset:1.75;stroke-opacity:0.2"
       d="M 11.90625,6.879167 A 0.66145831,0.66145831 0 0 1 11.244792,7.5406253 0.66145831,0.66145831 0 0 1 10.583334,6.879167 0.66145831,0.66145831 0 0 1 11.244792,6.2177087 0.66145831,0.66145831 0 0 1 11.90625,6.879167 Z" />
    <path
       id="circle5202"
       style="fill:#dddddd;fill-opacity:1;stroke:#dddddd;stroke-width:0.264583;stroke-linecap:round;stroke-linejoin:round;stroke-miterlimit:4;stroke-dasharray:none;stroke-dashoffset:1.75;stroke-opacity:0.2"
       d="M 13.229167,6.879167 A 0.66145831,0.66145831 0 0 1 12.567709,7.5406253 0.66145831,0.66145831 0 0 1 11.906251,6.879167 0.66145831,0.66145831 0 0 1 12.567709,6.2177087 0.66145831,0.66145831 0 0 1 13.229167,6.879167 Z" />
    <path
       id="circle5204"
       style="fill:#dddddd;fill-opacity:1;stroke:#dddddd;stroke-width:0.264583;stroke-linecap:round;stroke-linejoin:round;stroke-miterlimit:4;stroke-dasharray:none;stroke-dashoffset:1.75;stroke-opacity:0.2"
       d="M 15.874999,6.879167 A 0.66145831,0.66145831 0 0 1 15.213541,7.5406253 0.66145831,0.66145831 0 0 1 14.552083,6.879167 0.66145831,0.66145831 0 0 1 15.213541,6.2177087 0.66145831,0.66145831 0 0 1 15.874999,6.879167 Z" />
    <path
       id="circle5206"
       style="fill:#dddddd;fill-opacity:1;stroke:#dddddd;stroke-width:0.264583;stroke-linecap:round;stroke-linejoin:round;stroke-miterlimit:4;stroke-dasharray:none;stroke-dashoffset:1.75;stroke-opacity:0.2"
       d="M 14.552083,6.8791665 A 0.66145831,0.66145831 0 0 1 13.890625,7.5406248 0.66145831,0.66145831 0 0 1 13.229168,6.8791665 0.66145831,0.66145831 0 0 1 13.890625,6.2177082 0.66145831,0.66145831 0 0 1 14.552083,6.8791665 Z" />
    <path
       id="circle5208"
       style="fill:#dddddd;fill-opacity:1;stroke:#dddddd;stroke-width:0.264583;stroke-linecap:round;stroke-linejoin:round;stroke-miterlimit:4;stroke-dasharray:none;stroke-dashoffset:1.75;stroke-opacity:0.2"
       d="M 6.614584,9.5250005 A 0.66145831,0.66145831 0 0 1 5.9531257,10.186458 0.66145831,0.66145831 0 0 1 5.2916674,9.5250005 0.66145831,0.66145831 0 0 1 5.9531257,8.8635422 0.66145831,0.66145831 0 0 1 6.614584,9.5250005 Z" />
    <path
       id="circle5210"
       style="fill:#dddddd;fill-opacity:1;stroke:#dddddd;stroke-width:0.264583;stroke-linecap:round;stroke-linejoin:round;stroke-miterlimit:4;stroke-dasharray:none;stroke-dashoffset:1.75;stroke-opacity:0.2"
       d="M 7.9375005,9.5250005 A 0.66145831,0.66145831 0 0 1 7.2760422,10.186458 0.66145831,0.66145831 0 0 1 6.6145839,9.5250005 0.66145831,0.66145831 0 0 1 7.2760422,8.8635422 0.66145831,0.66145831 0 0 1 7.9375005,9.5250005 Z" />
    <path
       id="circle5212"
       style="fill:#dddddd;fill-opacity:1;stroke:#dddddd;stroke-width:0.264583;stroke-linecap:round;stroke-linejoin:round;stroke-miterlimit:4;stroke-dasharray:none;stroke-dashoffset:1.75;stroke-opacity:0.2"
       d="M 10.583333,9.5250005 A 0.66145831,0.66145831 0 0 1 9.9218751,10.186458 0.66145831,0.66145831 0 0 1 9.2604164,9.5250005 0.66145831,0.66145831 0 0 1 9.9218751,8.8635422 0.66145831,0.66145831 0 0 1 10.583333,9.5250005 Z" />
    <path
       id="circle5214"
       style="fill:#dddddd;fill-opacity:1;stroke:#dddddd;stroke-width:0.264583;stroke-linecap:round;stroke-linejoin:round;stroke-miterlimit:4;stroke-dasharray:none;stroke-dashoffset:1.75;stroke-opacity:0.2"
       d="M 11.90625,9.5250005 A 0.66145831,0.66145831 0 0 1 11.244792,10.186458 0.66145831,0.66145831 0 0 1 10.583334,9.5250005 0.66145831,0.66145831 0 0 1 11.244792,8.8635422 0.66145831,0.66145831 0 0 1 11.90625,9.5250005 Z" />
    <path
       id="circle5216"
       style="fill:#dddddd;fill-opacity:1;stroke:#dddddd;stroke-width:0.264583;stroke-linecap:round;stroke-linejoin:round;stroke-miterlimit:4;stroke-dasharray:none;stroke-dashoffset:1.75;stroke-opacity:0.2"
       d="M 5.291667,1.5875005 A 0.66145831,0.66145831 0 0 1 4.6302087,2.2489588 0.66145831,0.66145831 0 0 1 3.9687504,1.5875005 0.66145831,0.66145831 0 0 1 4.6302087,0.92604227 0.66145831,0.66145831 0 0 1 5.291667,1.5875005 Z" />
    <path
       id="circle5218"
       style="fill:#dddddd;fill-opacity:1;stroke:#dddddd;stroke-width:0.264583;stroke-linecap:round;stroke-linejoin:round;stroke-miterlimit:4;stroke-dasharray:none;stroke-dashoffset:1.75;stroke-opacity:0.2"
       d="M 17.197917,1.5875005 A 0.66145831,0.66145831 0 0 1 16.536459,2.2489588 0.66145831,0.66145831 0 0 1 15.875001,1.5875005 0.66145831,0.66145831 0 0 1 16.536459,0.92604227 0.66145831,0.66145831 0 0 1 17.197917,1.5875005 Z" />
    <path
       id="circle5220"
       style="fill:#dddddd;fill-opacity:1;stroke:#dddddd;stroke-width:0.264583;stroke-linecap:round;stroke-linejoin:round;stroke-miterlimit:4;stroke-dasharray:none;stroke-dashoffset:1.75;stroke-opacity:0.2"
       d="m 17.197917,12.170833 a 0.66145831,0.66145831 0 0 1 -0.661458,0.661458 0.66145831,0.66145831 0 0 1 -0.661458,-0.661458 0.66145831,0.66145831 0 0 1 0.661458,-0.661458 0.66145831,0.66145831 0 0 1 0.661458,0.661458 z" />
    <path
       id="circle5222"
       style="fill:#dddddd;fill-opacity:1;stroke:#dddddd;stroke-width:0.264583;stroke-linecap:round;stroke-linejoin:round;stroke-miterlimit:4;stroke-dasharray:none;stroke-dashoffset:1.75;stroke-opacity:0.2"
       d="M 5.291667,12.170833 A 0.66145831,0.66145831 0 0 1 4.6302087,12.832291 0.66145831,0.66145831 0 0 1 3.9687504,12.170833 0.66145831,0.66145831 0 0 1 4.6302087,11.509375 0.66145831,0.66145831 0 0 1 5.291667,12.170833 Z" />
    <path
       id="circle5224"
       style="fill:#dddddd;fill-opacity:1;stroke:#dddddd;stroke-width:0.264583;stroke-linecap:round;stroke-linejoin:round;stroke-miterlimit:4;stroke-dasharray:none;stroke-dashoffset:1.75;stroke-opacity:0.2"
       d="M 10.583334,13.49375 A 0.66145831,0.66145831 0 0 1 9.9218761,14.155208 0.66145831,0.66145831 0 0 1 9.2604174,13.49375 0.66145831,0.66145831 0 0 1 9.9218761,12.832292 0.66145831,0.66145831 0 0 1 10.583334,13.49375 Z" />
    <path
       id="circle5226"
       style="fill:#dddddd;fill-opacity:1;stroke:#dddddd;stroke-width:0.264583;stroke-linecap:round;stroke-linejoin:round;stroke-miterlimit:4;stroke-dasharray:none;stroke-dashoffset:1.75;stroke-opacity:0.2"
       d="m 11.90625,13.49375 a 0.66145831,0.66145831 0 0 1 -0.661458,0.661458 0.66145831,0.66145831 0 0 1 -0.661458,-0.661458 0.66145831,0.66145831 0 0 1 0.661458,-0.661458 0.66145831,0.66145831 0 0 1 0.661458,0.661458 z" />
    <path
       id="circle5228"
       style="fill:#dddddd;fill-opacity:1;stroke:#dddddd;stroke-width:0.264583;stroke-linecap:round;stroke-linejoin:round;stroke-miterlimit:4;stroke-dasharray:none;stroke-dashoffset:1.75;stroke-opacity:0.2"
       d="M 9.260417,14.816666 A 0.66145831,0.66145831 0 0 1 8.5989587,15.478124 0.66145831,0.66145831 0 0 1 7.9375004,14.816666 0.66145831,0.66145831 0 0 1 8.5989587,14.155208 0.66145831,0.66145831 0 0 1 9.260417,14.816666 Z" />
    <path
       id="circle5230"
       style="fill:#dddddd;fill-opacity:1;stroke:#dddddd;stroke-width:0.264583;stroke-linecap:round;stroke-linejoin:round;stroke-miterlimit:4;stroke-dasharray:none;stroke-dashoffset:1.75;stroke-opacity:0.2"
       d="m 11.906251,14.816666 a 0.66145831,0.66145831 0 0 1 -0.661458,0.661458 0.66145831,0.66145831 0 0 1 -0.661458,-0.661458 0.66145831,0.66145831 0 0 1 0.661458,-0.661458 0.66145831,0.66145831 0 0 1 0.661458,0.661458 z" />
    <path
       id="circle5232"
       style="fill:#dddddd;fill-opacity:1;stroke:#dddddd;stroke-width:0.264583;stroke-linecap:round;stroke-linejoin:round;stroke-miterlimit:4;stroke-dasharray:none;stroke-dashoffset:1.75;stroke-opacity:0.2"
       d="m 13.229167,14.816666 a 0.66145831,0.66145831 0 0 1 -0.661458,0.661458 0.66145831,0.66145831 0 0 1 -0.661458,-0.661458 0.66145831,0.66145831 0 0 1 0.661458,-0.661458 0.66145831,0.66145831 0 0 1 0.661458,0.661458 z" />
    <path
       id="circle5234"
       style="fill:#dddddd;fill-opacity:1;stroke:#dddddd;stroke-width:0.264583;stroke-linecap:round;stroke-linejoin:round;stroke-miterlimit:4;stroke-dasharray:none;stroke-dashoffset:1.75;stroke-opacity:0.2"
       d="M 10.583334,14.816666 A 0.66145831,0.66145831 0 0 1 9.9218761,15.478124 0.66145831,0.66145831 0 0 1 9.2604174,14.816666 0.66145831,0.66145831 0 0 1 9.9218761,14.155208 0.66145831,0.66145831 0 0 1 10.583334,14.816666 Z" />
    <path
       id="circle5236"
       style="fill:#dddddd;fill-opacity:1;stroke:#dddddd;stroke-width:0.264583;stroke-linecap:round;stroke-linejoin:round;stroke-miterlimit:4;stroke-dasharray:none;stroke-dashoffset:1.75;stroke-opacity:0.2"
       d="M 7.9375005,14.816666 A 0.66145831,0.66145831 0 0 1 7.2760422,15.478124 0.66145831,0.66145831 0 0 1 6.6145839,14.816666 0.66145831,0.66145831 0 0 1 7.2760422,14.155208 0.66145831,0.66145831 0 0 1 7.9375005,14.816666 Z" />
    <path
       id="circle5238"
       style="fill:#dddddd;fill-opacity:1;stroke:#dddddd;stroke-width:0.264583;stroke-linecap:round;stroke-linejoin:round;stroke-miterlimit:4;stroke-dasharray:none;stroke-dashoffset:1.75;stroke-opacity:0.2"
       d="m 14.552083,14.816666 a 0.66145831,0.66145831 0 0 1 -0.661458,0.661458 0.66145831,0.66145831 0 0 1 -0.661457,-0.661458 0.66145831,0.66145831 0 0 1 0.661457,-0.661458 0.66145831,0.66145831 0 0 1 0.661458,0.661458 z" />
  </g>
</svg>
