<?xml version="1.0" encoding="UTF-8" standalone="no"?>
<!-- Created with Inkscape (http://www.inkscape.org/) -->

<svg
   width="192"
   height="192"
   viewBox="0 0 50.799999 50.800001"
   version="1.1"
   id="svg5"
   inkscape:version="1.1.2 (0a00cf5339, 2022-02-04)"
   sodipodi:docname="favicon.svg"
   xmlns:inkscape="http://www.inkscape.org/namespaces/inkscape"
   xmlns:sodipodi="http://sodipodi.sourceforge.net/DTD/sodipodi-0.dtd"
   xmlns="http://www.w3.org/2000/svg"
   xmlns:svg="http://www.w3.org/2000/svg">
  <sodipodi:namedview
     id="namedview7"
     pagecolor="#ffffff"
     bordercolor="#666666"
     borderopacity="1.0"
     inkscape:pageshadow="2"
     inkscape:pageopacity="0.0"
     inkscape:pagecheckerboard="0"
     inkscape:document-units="px"
     showgrid="true"
     units="px"
     width="192px"
     inkscape:zoom="0.52724989"
     inkscape:cx="69.227137"
     inkscape:cy="110.95308"
     inkscape:window-width="1920"
     inkscape:window-height="1011"
     inkscape:window-x="0"
     inkscape:window-y="0"
     inkscape:window-maximized="1"
     inkscape:current-layer="layer1"
     inkscape:snap-bbox="true"
     inkscape:bbox-nodes="true">
    <inkscape:grid
       type="xygrid"
       id="grid824" />
  </sodipodi:namedview>
  <defs
     id="defs2">
    <rect
       x="20"
       y="20"
       width="240"
       height="220"
       id="rect3722" />
    <rect
       x="20"
       y="20"
       width="160"
       height="100"
       id="rect3358" />
    <rect
       x="20"
       y="20"
       width="240"
       height="220"
       id="rect14250" />
  </defs>
  <g
     inkscape:label="Livello 1"
     inkscape:groupmode="layer"
     id="layer1">
    <path
       id="rect15018"
       style="fill:#4d4d4d;stroke-width:0.260512;stroke-linecap:round;stroke-linejoin:round;stroke-dashoffset:6.61417;stroke-opacity:0.2;stop-color:#000000"
       d="M 0,0 H 50.799999 V 50.799999 H 0 Z" />
    <g
       aria-label="77"
       transform="matrix(0.18218738,0,0,0.18218738,0.57933253,-15.335236)"
       id="text3720"
       style="font-size:192px;line-height:1.25;font-family:'5by7';-inkscape-font-specification:'5by7, Normal';white-space:pre;shape-inside:url(#rect3722);fill:#f9f9f9">
      <path
         d="m 106.4,130.4 q 0,-3.84 2.496,-6.528 2.304,-2.496 6.144,-3.072 -3.648,-0.384 -5.952,-2.688 -2.304,-2.304 -2.688,-5.952 -0.576,3.84 -3.072,6.144 -2.688,2.496 -6.528,2.496 -3.84,0 -6.528,-2.496 Q 87.584,116 87.2,112.16 86.624,116 84.128,118.304 81.44,120.8 77.6,120.8 q -3.84,0 -6.528,-2.496 Q 68.384,116 68,112.16 67.424,116 64.928,118.304 62.24,120.8 58.4,120.8 q -3.84,0 -6.528,-2.496 Q 49.184,116 48.8,112.16 48.224,116 45.728,118.304 43.04,120.8 39.2,120.8 q -4.032,0 -6.912,-2.688 -2.688,-2.88 -2.688,-6.912 0,-4.032 2.688,-6.72 2.88,-2.88 6.912,-2.88 3.84,0 6.528,2.496 2.688,2.496 3.072,6.336 0.384,-3.84 3.072,-6.336 2.688,-2.496 6.528,-2.496 3.84,0 6.528,2.496 2.496,2.496 3.072,6.144 0.384,-3.648 3.072,-6.144 2.688,-2.496 6.528,-2.496 3.84,0 6.528,2.496 2.688,2.496 3.072,6.336 0.384,-3.84 3.072,-6.336 2.688,-2.496 6.528,-2.496 4.032,0 6.72,2.88 2.88,2.688 2.88,6.72 0,-4.032 2.688,-6.72 2.88,-2.88 6.912,-2.88 4.032,0 6.72,2.88 2.88,2.688 2.88,6.72 0,3.84 -2.496,6.528 -2.496,2.688 -6.144,3.072 3.648,0.576 6.144,3.072 2.496,2.688 2.496,6.528 0,4.032 -2.88,6.912 Q 120.032,140 116,140 q -4.032,0 -6.912,-2.688 -2.688,-2.88 -2.688,-6.912 z M 68,188 q 0,-3.84 2.496,-6.528 Q 72.8,178.976 76.64,178.4 72.8,178.016 70.496,175.328 68,172.64 68,168.8 q 0,-4.032 2.688,-6.72 2.88,-2.88 6.912,-2.88 4.032,0 6.72,2.88 2.88,2.688 2.88,6.72 0,3.84 -2.496,6.528 -2.496,2.688 -6.144,3.072 3.648,0.576 6.144,3.072 2.496,2.688 2.496,6.528 0,3.84 -2.496,6.528 -2.496,2.688 -6.144,3.072 3.648,0.576 6.144,3.072 2.496,2.688 2.496,6.528 0,3.84 -2.496,6.528 -2.496,2.688 -6.144,3.072 3.648,0.576 6.144,3.072 2.496,2.688 2.496,6.528 0,4.032 -2.88,6.912 Q 81.632,236 77.6,236 73.568,236 70.688,233.312 68,230.432 68,226.4 68,222.56 70.496,219.872 72.8,217.376 76.64,216.8 72.8,216.416 70.496,213.728 68,211.04 68,207.2 68,203.36 70.496,200.672 72.8,198.176 76.64,197.6 72.8,197.216 70.496,194.528 68,191.84 68,188 Z m 19.2,-38.4 q 0,-4.032 2.688,-6.72 2.88,-2.88 6.912,-2.88 4.032,0 6.72,2.88 2.88,2.688 2.88,6.72 0,4.032 -2.88,6.912 -2.688,2.688 -6.72,2.688 -4.032,0 -6.912,-2.688 Q 87.2,153.632 87.2,149.6 Z"
         id="path15237" />
      <path
         d="m 221.59971,130.4 q 0,-3.84 2.496,-6.528 2.304,-2.496 6.144,-3.072 -3.648,-0.384 -5.952,-2.688 -2.304,-2.304 -2.688,-5.952 -0.576,3.84 -3.072,6.144 -2.688,2.496 -6.528,2.496 -3.84,0 -6.528,-2.496 -2.688,-2.304 -3.072,-6.144 -0.576,3.84 -3.072,6.144 -2.688,2.496 -6.528,2.496 -3.84,0 -6.528,-2.496 -2.688,-2.304 -3.072,-6.144 -0.576,3.84 -3.072,6.144 -2.688,2.496 -6.528,2.496 -3.84,0 -6.528,-2.496 -2.688,-2.304 -3.072,-6.144 -0.576,3.84 -3.072,6.144 -2.688,2.496 -6.528,2.496 -4.032,0 -6.912,-2.688 -2.688,-2.88 -2.688,-6.912 0,-4.032 2.688,-6.72 2.88,-2.88 6.912,-2.88 3.84,0 6.528,2.496 2.688,2.496 3.072,6.336 0.384,-3.84 3.072,-6.336 2.688,-2.496 6.528,-2.496 3.84,0 6.528,2.496 2.496,2.496 3.072,6.144 0.384,-3.648 3.072,-6.144 2.688,-2.496 6.528,-2.496 3.84,0 6.528,2.496 2.688,2.496 3.072,6.336 0.384,-3.84 3.072,-6.336 2.688,-2.496 6.528,-2.496 4.032,0 6.72,2.88 2.88,2.688 2.88,6.72 0,-4.032 2.688,-6.72 2.88,-2.88 6.912,-2.88 4.032,0 6.72,2.88 2.88,2.688 2.88,6.72 0,3.84 -2.496,6.528 -2.496,2.688 -6.144,3.072 3.648,0.576 6.144,3.072 2.496,2.688 2.496,6.528 0,4.032 -2.88,6.912 -2.688,2.688 -6.72,2.688 -4.032,0 -6.912,-2.688 -2.688,-2.88 -2.688,-6.912 z m -38.4,57.6 q 0,-3.84 2.496,-6.528 2.304,-2.496 6.144,-3.072 -3.84,-0.384 -6.144,-3.072 -2.496,-2.688 -2.496,-6.528 0,-4.032 2.688,-6.72 2.88,-2.88 6.912,-2.88 4.032,0 6.72,2.88 2.88,2.688 2.88,6.72 0,3.84 -2.496,6.528 -2.496,2.688 -6.144,3.072 3.648,0.576 6.144,3.072 2.496,2.688 2.496,6.528 0,3.84 -2.496,6.528 -2.496,2.688 -6.144,3.072 3.648,0.576 6.144,3.072 2.496,2.688 2.496,6.528 0,3.84 -2.496,6.528 -2.496,2.688 -6.144,3.072 3.648,0.576 6.144,3.072 2.496,2.688 2.496,6.528 0,4.032 -2.88,6.912 -2.688,2.688 -6.72,2.688 -4.032,0 -6.912,-2.688 -2.688,-2.88 -2.688,-6.912 0,-3.84 2.496,-6.528 2.304,-2.496 6.144,-3.072 -3.84,-0.384 -6.144,-3.072 -2.496,-2.688 -2.496,-6.528 0,-3.84 2.496,-6.528 2.304,-2.496 6.144,-3.072 -3.84,-0.384 -6.144,-3.072 -2.496,-2.688 -2.496,-6.528 z m 19.2,-38.4 q 0,-4.032 2.688,-6.72 2.88,-2.88 6.912,-2.88 4.032,0 6.72,2.88 2.88,2.688 2.88,6.72 0,4.032 -2.88,6.912 -2.688,2.688 -6.72,2.688 -4.032,0 -6.912,-2.688 -2.688,-2.88 -2.688,-6.912 z"
         id="path15239" />
    </g>
    <g
       aria-label="nn"
       transform="matrix(0.18290351,0,0,0.18290351,0.40688926,4.5560207)"
       id="text14248"
       style="font-size:192px;line-height:1.25;font-family:'5by7';-inkscape-font-specification:'5by7, Normal';white-space:pre;shape-inside:url(#rect14250);fill:#f9f9f9">
      <path
         d="m 29.6,188 q 0,-3.84 2.496,-6.528 Q 34.4,178.976 38.24,178.4 34.4,178.016 32.096,175.328 29.6,172.64 29.6,168.8 q 0,-3.84 2.496,-6.528 Q 34.4,159.776 38.24,159.2 34.4,158.816 32.096,156.128 29.6,153.44 29.6,149.6 q 0,-4.032 2.688,-6.72 2.88,-2.88 6.912,-2.88 4.032,0 6.72,2.88 2.88,2.688 2.88,6.72 0,3.84 -2.496,6.528 -2.496,2.688 -6.144,3.072 3.648,0.576 6.144,3.072 2.112,2.496 2.496,5.76 0.192,-3.456 2.688,-5.952 2.88,-2.88 6.912,-2.88 4.032,0 6.72,2.88 2.88,2.688 2.88,6.72 0,4.032 -2.88,6.912 -2.688,2.688 -6.72,2.688 -3.84,0 -6.528,-2.496 -2.688,-2.304 -3.072,-6.144 -0.576,3.648 -3.072,5.952 -2.304,2.304 -5.568,2.688 3.648,0.576 6.144,3.072 2.496,2.688 2.496,6.528 0,3.84 -2.496,6.528 -2.496,2.688 -6.144,3.072 3.648,0.576 6.144,3.072 2.496,2.688 2.496,6.528 0,3.84 -2.496,6.528 -2.496,2.688 -6.144,3.072 3.648,0.576 6.144,3.072 2.496,2.688 2.496,6.528 0,4.032 -2.88,6.912 Q 43.232,236 39.2,236 q -4.032,0 -6.912,-2.688 -2.688,-2.88 -2.688,-6.912 0,-3.84 2.496,-6.528 Q 34.4,217.376 38.24,216.8 34.4,216.416 32.096,213.728 29.6,211.04 29.6,207.2 q 0,-3.84 2.496,-6.528 Q 34.4,198.176 38.24,197.6 34.4,197.216 32.096,194.528 29.6,191.84 29.6,188 Z m 76.8,0 q 0,-3.84 2.496,-6.528 2.304,-2.496 6.144,-3.072 -3.84,-0.384 -6.144,-3.072 -2.496,-2.688 -2.496,-6.528 0,-4.032 2.688,-6.72 2.88,-2.88 6.912,-2.88 4.032,0 6.72,2.88 2.88,2.688 2.88,6.72 0,3.84 -2.496,6.528 -2.496,2.688 -6.144,3.072 3.648,0.576 6.144,3.072 2.496,2.688 2.496,6.528 0,3.84 -2.496,6.528 -2.496,2.688 -6.144,3.072 3.648,0.576 6.144,3.072 2.496,2.688 2.496,6.528 0,3.84 -2.496,6.528 -2.496,2.688 -6.144,3.072 3.648,0.576 6.144,3.072 2.496,2.688 2.496,6.528 0,4.032 -2.88,6.912 Q 120.032,236 116,236 q -4.032,0 -6.912,-2.688 -2.688,-2.88 -2.688,-6.912 0,-3.84 2.496,-6.528 2.304,-2.496 6.144,-3.072 -3.84,-0.384 -6.144,-3.072 -2.496,-2.688 -2.496,-6.528 0,-3.84 2.496,-6.528 2.304,-2.496 6.144,-3.072 -3.84,-0.384 -6.144,-3.072 Q 106.4,191.84 106.4,188 Z M 68,149.6 q 0,-4.032 2.688,-6.72 2.88,-2.88 6.912,-2.88 4.032,0 6.72,2.88 2.496,2.496 2.88,5.952 0.192,-3.456 2.688,-5.952 2.88,-2.88 6.912,-2.88 4.032,0 6.72,2.88 2.88,2.688 2.88,6.72 0,4.032 -2.88,6.912 -2.688,2.688 -6.72,2.688 -3.84,0 -6.528,-2.496 -2.688,-2.304 -3.072,-6.144 -0.576,3.84 -3.072,6.144 -2.688,2.496 -6.528,2.496 -4.032,0 -6.912,-2.688 Q 68,153.632 68,149.6 Z"
         id="path15242" />
      <path
         d="m 144.79971,188 q 0,-3.84 2.496,-6.528 2.304,-2.496 6.144,-3.072 -3.84,-0.384 -6.144,-3.072 -2.496,-2.688 -2.496,-6.528 0,-3.84 2.496,-6.528 2.304,-2.496 6.144,-3.072 -3.84,-0.384 -6.144,-3.072 -2.496,-2.688 -2.496,-6.528 0,-4.032 2.688,-6.72 2.88,-2.88 6.912,-2.88 4.032,0 6.72,2.88 2.88,2.688 2.88,6.72 0,3.84 -2.496,6.528 -2.496,2.688 -6.144,3.072 3.648,0.576 6.144,3.072 2.112,2.496 2.496,5.76 0.192,-3.456 2.688,-5.952 2.88,-2.88 6.912,-2.88 4.032,0 6.72,2.88 2.88,2.688 2.88,6.72 0,4.032 -2.88,6.912 -2.688,2.688 -6.72,2.688 -3.84,0 -6.528,-2.496 -2.688,-2.304 -3.072,-6.144 -0.576,3.648 -3.072,5.952 -2.304,2.304 -5.568,2.688 3.648,0.576 6.144,3.072 2.496,2.688 2.496,6.528 0,3.84 -2.496,6.528 -2.496,2.688 -6.144,3.072 3.648,0.576 6.144,3.072 2.496,2.688 2.496,6.528 0,3.84 -2.496,6.528 -2.496,2.688 -6.144,3.072 3.648,0.576 6.144,3.072 2.496,2.688 2.496,6.528 0,4.032 -2.88,6.912 -2.688,2.688 -6.72,2.688 -4.032,0 -6.912,-2.688 -2.688,-2.88 -2.688,-6.912 0,-3.84 2.496,-6.528 2.304,-2.496 6.144,-3.072 -3.84,-0.384 -6.144,-3.072 -2.496,-2.688 -2.496,-6.528 0,-3.84 2.496,-6.528 2.304,-2.496 6.144,-3.072 -3.84,-0.384 -6.144,-3.072 -2.496,-2.688 -2.496,-6.528 z m 76.8,0 q 0,-3.84 2.496,-6.528 2.304,-2.496 6.144,-3.072 -3.84,-0.384 -6.144,-3.072 -2.496,-2.688 -2.496,-6.528 0,-4.032 2.688,-6.72 2.88,-2.88 6.912,-2.88 4.032,0 6.72,2.88 2.88,2.688 2.88,6.72 0,3.84 -2.496,6.528 -2.496,2.688 -6.144,3.072 3.648,0.576 6.144,3.072 2.496,2.688 2.496,6.528 0,3.84 -2.496,6.528 -2.496,2.688 -6.144,3.072 3.648,0.576 6.144,3.072 2.496,2.688 2.496,6.528 0,3.84 -2.496,6.528 -2.496,2.688 -6.144,3.072 3.648,0.576 6.144,3.072 2.496,2.688 2.496,6.528 0,4.032 -2.88,6.912 -2.688,2.688 -6.72,2.688 -4.032,0 -6.912,-2.688 -2.688,-2.88 -2.688,-6.912 0,-3.84 2.496,-6.528 2.304,-2.496 6.144,-3.072 -3.84,-0.384 -6.144,-3.072 -2.496,-2.688 -2.496,-6.528 0,-3.84 2.496,-6.528 2.304,-2.496 6.144,-3.072 -3.84,-0.384 -6.144,-3.072 -2.496,-2.688 -2.496,-6.528 z m -38.4,-38.4 q 0,-4.032 2.688,-6.72 2.88,-2.88 6.912,-2.88 4.032,0 6.72,2.88 2.496,2.496 2.88,5.952 0.192,-3.456 2.688,-5.952 2.88,-2.88 6.912,-2.88 4.032,0 6.72,2.88 2.88,2.688 2.88,6.72 0,4.032 -2.88,6.912 -2.688,2.688 -6.72,2.688 -3.84,0 -6.528,-2.496 -2.688,-2.304 -3.072,-6.144 -0.576,3.84 -3.072,6.144 -2.688,2.496 -6.528,2.496 -4.032,0 -6.912,-2.688 -2.688,-2.88 -2.688,-6.912 z"
         id="path15244" />
    </g>
  </g>
</svg>
