<?xml version="1.0" encoding="UTF-8" standalone="no"?>
<svg
   width="55.999992"
   height="56"
   viewBox="0 0 14.816664 14.816667"
   version="1.1"
   id="svg3409"
   xmlns="http://www.w3.org/2000/svg"
   xmlns:svg="http://www.w3.org/2000/svg">
  <defs
     id="defs3406" />
  <path
     id="circle1736"
     style="fill:#dddddd;fill-opacity:1;stroke:#dddddd;stroke-width:0.264583;stroke-linecap:round;stroke-linejoin:round;stroke-miterlimit:4;stroke-dasharray:none;stroke-dashoffset:1.75;stroke-opacity:0.2"
     d="M 6.7468745,3.4395832 A 0.66145831,0.66145831 0 0 1 6.0854164,4.1010415 0.66145831,0.66145831 0 0 1 5.4239581,3.4395832 0.66145831,0.66145831 0 0 1 6.0854164,2.7781249 0.66145831,0.66145831 0 0 1 6.7468745,3.4395832 Z" />
  <path
     id="circle4203"
     style="fill:#dddddd;fill-opacity:1;stroke:#dddddd;stroke-width:0.264583;stroke-linecap:round;stroke-linejoin:round;stroke-miterlimit:4;stroke-dasharray:none;stroke-dashoffset:1.75;stroke-opacity:0.2"
     d="M 2.7781247,2.1166664 A 0.66145831,0.66145831 0 0 1 2.1166664,2.7781248 0.66145831,0.66145831 0 0 1 1.4552081,2.1166664 0.66145831,0.66145831 0 0 1 2.1166664,1.4552082 0.66145831,0.66145831 0 0 1 2.7781247,2.1166664 Z" />
  <path
     id="circle4211"
     style="fill:#dddddd;fill-opacity:1;stroke:#dddddd;stroke-width:0.264583;stroke-linecap:round;stroke-linejoin:round;stroke-miterlimit:4;stroke-dasharray:none;stroke-dashoffset:1.75;stroke-opacity:0.2"
     d="M 5.423958,2.1166664 A 0.66145831,0.66145831 0 0 1 4.7624997,2.7781248 0.66145831,0.66145831 0 0 1 4.1010414,2.1166664 0.66145831,0.66145831 0 0 1 4.7624997,1.4552081 0.66145831,0.66145831 0 0 1 5.423958,2.1166664 Z" />
  <path
     id="circle4225"
     style="fill:#dddddd;fill-opacity:1;stroke:#dddddd;stroke-width:0.264583;stroke-linecap:round;stroke-linejoin:round;stroke-miterlimit:4;stroke-dasharray:none;stroke-dashoffset:1.75;stroke-opacity:0.2"
     d="M 4.1010413,3.4395832 A 0.66145831,0.66145831 0 0 1 3.439583,4.1010415 0.66145831,0.66145831 0 0 1 2.7781247,3.4395832 0.66145831,0.66145831 0 0 1 3.439583,2.7781249 0.66145831,0.66145831 0 0 1 4.1010413,3.4395832 Z" />
  <path
     id="circle4227"
     style="fill:#dddddd;fill-opacity:1;stroke:#dddddd;stroke-width:0.264583;stroke-linecap:round;stroke-linejoin:round;stroke-miterlimit:4;stroke-dasharray:none;stroke-dashoffset:1.75;stroke-opacity:0.2"
     d="M 6.7468745,4.7624998 A 0.66145831,0.66145831 0 0 1 6.0854164,5.4239581 0.66145831,0.66145831 0 0 1 5.4239581,4.7624998 0.66145831,0.66145831 0 0 1 6.0854164,4.1010415 0.66145831,0.66145831 0 0 1 6.7468745,4.7624998 Z" />
  <path
     id="circle4231"
     style="fill:#dddddd;fill-opacity:1;stroke:#dddddd;stroke-width:0.264583;stroke-linecap:round;stroke-linejoin:round;stroke-miterlimit:4;stroke-dasharray:none;stroke-dashoffset:1.75;stroke-opacity:0.2"
     d="M 2.7781247,7.408332 A 0.66145831,0.66145831 0 0 1 2.1166664,8.06979 0.66145831,0.66145831 0 0 1 1.4552081,7.408332 0.66145831,0.66145831 0 0 1 2.1166664,6.7468737 0.66145831,0.66145831 0 0 1 2.7781247,7.408332 Z" />
  <path
     id="circle4233"
     style="fill:#dddddd;fill-opacity:1;stroke:#dddddd;stroke-width:0.264583;stroke-linecap:round;stroke-linejoin:round;stroke-miterlimit:4;stroke-dasharray:none;stroke-dashoffset:1.75;stroke-opacity:0.2"
     d="M 2.7781247,8.7312471 A 0.66145831,0.66145831 0 0 1 2.1166664,9.3927048 0.66145831,0.66145831 0 0 1 1.4552081,8.7312471 0.66145831,0.66145831 0 0 1 2.1166664,8.0697903 0.66145831,0.66145831 0 0 1 2.7781247,8.7312471 Z" />
  <path
     id="circle4241"
     style="fill:#dddddd;fill-opacity:1;stroke:#dddddd;stroke-width:0.264583;stroke-linecap:round;stroke-linejoin:round;stroke-miterlimit:4;stroke-dasharray:none;stroke-dashoffset:1.75;stroke-opacity:0.2"
     d="M 6.7468745,11.377083 A 0.66145831,0.66145831 0 0 1 6.0854163,12.038541 0.66145831,0.66145831 0 0 1 5.423958,11.377083 0.66145831,0.66145831 0 0 1 6.0854163,10.715625 0.66145831,0.66145831 0 0 1 6.7468745,11.377083 Z" />
  <path
     id="circle4243"
     style="fill:#dddddd;fill-opacity:1;stroke:#dddddd;stroke-width:0.264583;stroke-linecap:round;stroke-linejoin:round;stroke-miterlimit:4;stroke-dasharray:none;stroke-dashoffset:1.75;stroke-opacity:0.2"
     d="M 5.423958,10.054167 A 0.66145831,0.66145831 0 0 1 4.7624997,10.715625 0.66145831,0.66145831 0 0 1 4.1010414,10.054167 0.66145831,0.66145831 0 0 1 4.7624997,9.3927088 0.66145831,0.66145831 0 0 1 5.423958,10.054167 Z" />
  <path
     id="circle4245"
     style="fill:#dddddd;fill-opacity:1;stroke:#dddddd;stroke-width:0.264583;stroke-linecap:round;stroke-linejoin:round;stroke-miterlimit:4;stroke-dasharray:none;stroke-dashoffset:1.75;stroke-opacity:0.2"
     d="m 13.361457,10.054166 a 0.66145831,0.66145831 0 0 1 -0.661458,0.661458 0.66145831,0.66145831 0 0 1 -0.661458,-0.661458 0.66145831,0.66145831 0 0 1 0.661458,-0.6614582 0.66145831,0.66145831 0 0 1 0.661458,0.6614582 z" />
  <path
     id="circle4247"
     style="fill:#dddddd;fill-opacity:1;stroke:#dddddd;stroke-width:0.264583;stroke-linecap:round;stroke-linejoin:round;stroke-miterlimit:4;stroke-dasharray:none;stroke-dashoffset:1.75;stroke-opacity:0.2"
     d="m 13.361456,11.377083 a 0.66145831,0.66145831 0 0 1 -0.661458,0.661458 0.66145831,0.66145831 0 0 1 -0.661457,-0.661458 0.66145831,0.66145831 0 0 1 0.661457,-0.661458 0.66145831,0.66145831 0 0 1 0.661458,0.661458 z" />
  <path
     id="circle4249"
     style="fill:#dddddd;fill-opacity:1;stroke:#dddddd;stroke-width:0.264583;stroke-linecap:round;stroke-linejoin:round;stroke-miterlimit:4;stroke-dasharray:none;stroke-dashoffset:1.75;stroke-opacity:0.2"
     d="m 10.715625,7.4083328 a 0.66145831,0.66145831 0 0 1 -0.661459,0.661458 0.66145831,0.66145831 0 0 1 -0.6614595,-0.661458 0.66145831,0.66145831 0 0 1 0.6614595,-0.661458 0.66145831,0.66145831 0 0 1 0.661459,0.661458 z" />
  <path
     id="circle4251"
     style="fill:#dddddd;fill-opacity:1;stroke:#dddddd;stroke-width:0.264583;stroke-linecap:round;stroke-linejoin:round;stroke-miterlimit:4;stroke-dasharray:none;stroke-dashoffset:1.75;stroke-opacity:0.2"
     d="m 12.038541,11.377083 a 0.66145831,0.66145831 0 0 1 -0.661458,0.661458 0.66145831,0.66145831 0 0 1 -0.661458,-0.661458 0.66145831,0.66145831 0 0 1 0.661458,-0.661458 0.66145831,0.66145831 0 0 1 0.661458,0.661458 z" />
  <path
     id="circle4253"
     style="fill:#dddddd;fill-opacity:1;stroke:#dddddd;stroke-width:0.264583;stroke-linecap:round;stroke-linejoin:round;stroke-miterlimit:4;stroke-dasharray:none;stroke-dashoffset:1.75;stroke-opacity:0.2"
     d="m 12.038541,10.054166 a 0.66145831,0.66145831 0 0 1 -0.661458,0.661458 0.66145831,0.66145831 0 0 1 -0.661458,-0.661458 0.66145831,0.66145831 0 0 1 0.661458,-0.6614582 0.66145831,0.66145831 0 0 1 0.661458,0.6614582 z" />
  <path
     id="circle4255"
     style="fill:#dddddd;fill-opacity:1;stroke:#dddddd;stroke-width:0.264583;stroke-linecap:round;stroke-linejoin:round;stroke-miterlimit:4;stroke-dasharray:none;stroke-dashoffset:1.75;stroke-opacity:0.2"
     d="M 6.7468745,10.054167 A 0.66145831,0.66145831 0 0 1 6.0854163,10.715625 0.66145831,0.66145831 0 0 1 5.423958,10.054167 0.66145831,0.66145831 0 0 1 6.0854163,9.3927088 0.66145831,0.66145831 0 0 1 6.7468745,10.054167 Z" />
  <path
     id="circle4417"
     style="fill:#dddddd;fill-opacity:1;stroke:#dddddd;stroke-width:0.264583;stroke-linecap:round;stroke-linejoin:round;stroke-miterlimit:4;stroke-dasharray:none;stroke-dashoffset:1.75;stroke-opacity:0.2"
     d="M 2.7781247,3.4395833 A 0.66145831,0.66145831 0 0 1 2.1166664,4.1010415 0.66145831,0.66145831 0 0 1 1.4552081,3.4395833 0.66145831,0.66145831 0 0 1 2.1166664,2.778125 0.66145831,0.66145831 0 0 1 2.7781247,3.4395833 Z" />
  <path
     id="circle4419"
     style="fill:#dddddd;fill-opacity:1;stroke:#dddddd;stroke-width:0.264583;stroke-linecap:round;stroke-linejoin:round;stroke-miterlimit:4;stroke-dasharray:none;stroke-dashoffset:1.75;stroke-opacity:0.2"
     d="M 8.0697905,3.4395833 A 0.66145831,0.66145831 0 0 1 7.4083325,4.1010415 0.66145831,0.66145831 0 0 1 6.7468745,3.4395833 0.66145831,0.66145831 0 0 1 7.4083325,2.778125 0.66145831,0.66145831 0 0 1 8.0697905,3.4395833 Z" />
  <path
     id="circle5192"
     style="fill:#dddddd;fill-opacity:1;stroke:#dddddd;stroke-width:0.264583;stroke-linecap:round;stroke-linejoin:round;stroke-miterlimit:4;stroke-dasharray:none;stroke-dashoffset:1.75;stroke-opacity:0.2"
     d="M 5.423958,3.4395832 A 0.66145831,0.66145831 0 0 1 4.7624997,4.1010415 0.66145831,0.66145831 0 0 1 4.1010414,3.4395832 0.66145831,0.66145831 0 0 1 4.7624997,2.7781249 0.66145831,0.66145831 0 0 1 5.423958,3.4395832 Z" />
  <path
     id="circle5196"
     style="fill:#dddddd;fill-opacity:1;stroke:#dddddd;stroke-width:0.264583;stroke-linecap:round;stroke-linejoin:round;stroke-miterlimit:4;stroke-dasharray:none;stroke-dashoffset:1.75;stroke-opacity:0.2"
     d="M 9.3927095,6.0854165 A 0.66145831,0.66145831 0 0 1 8.7312505,6.7468748 0.66145831,0.66145831 0 0 1 8.0697915,6.0854165 0.66145831,0.66145831 0 0 1 8.7312505,5.4239582 0.66145831,0.66145831 0 0 1 9.3927095,6.0854165 Z" />
  <path
     id="circle5198"
     style="fill:#dddddd;fill-opacity:1;stroke:#dddddd;stroke-width:0.264583;stroke-linecap:round;stroke-linejoin:round;stroke-miterlimit:4;stroke-dasharray:none;stroke-dashoffset:1.75;stroke-opacity:0.2"
     d="M 8.0697915,4.7624998 A 0.66145831,0.66145831 0 0 1 7.4083335,5.4239581 0.66145831,0.66145831 0 0 1 6.7468745,4.7624998 0.66145831,0.66145831 0 0 1 7.4083335,4.1010415 0.66145831,0.66145831 0 0 1 8.0697915,4.7624998 Z" />
  <path
     id="circle5200"
     style="fill:#dddddd;fill-opacity:1;stroke:#dddddd;stroke-width:0.264583;stroke-linecap:round;stroke-linejoin:round;stroke-miterlimit:4;stroke-dasharray:none;stroke-dashoffset:1.75;stroke-opacity:0.2"
     d="M 10.715624,6.0854165 A 0.66145831,0.66145831 0 0 1 10.054166,6.7468748 0.66145831,0.66145831 0 0 1 9.3927075,6.0854165 0.66145831,0.66145831 0 0 1 10.054166,5.4239582 0.66145831,0.66145831 0 0 1 10.715624,6.0854165 Z" />
  <path
     id="circle5204"
     style="fill:#dddddd;fill-opacity:1;stroke:#dddddd;stroke-width:0.264583;stroke-linecap:round;stroke-linejoin:round;stroke-miterlimit:4;stroke-dasharray:none;stroke-dashoffset:1.75;stroke-opacity:0.2"
     d="M 12.038541,7.4083331 A 0.66145831,0.66145831 0 0 1 11.377083,8.0697914 0.66145831,0.66145831 0 0 1 10.715625,7.4083331 0.66145831,0.66145831 0 0 1 11.377083,6.7468748 0.66145831,0.66145831 0 0 1 12.038541,7.4083331 Z" />
  <path
     id="circle5206"
     style="fill:#dddddd;fill-opacity:1;stroke:#dddddd;stroke-width:0.264583;stroke-linecap:round;stroke-linejoin:round;stroke-miterlimit:4;stroke-dasharray:none;stroke-dashoffset:1.75;stroke-opacity:0.2"
     d="M 9.3927065,4.7624998 A 0.66145831,0.66145831 0 0 1 8.7312485,5.4239581 0.66145831,0.66145831 0 0 1 8.0697915,4.7624998 0.66145831,0.66145831 0 0 1 8.7312485,4.1010415 0.66145831,0.66145831 0 0 1 9.3927065,4.7624998 Z" />
  <path
     id="circle5208"
     style="fill:#dddddd;fill-opacity:1;stroke:#dddddd;stroke-width:0.264583;stroke-linecap:round;stroke-linejoin:round;stroke-miterlimit:4;stroke-dasharray:none;stroke-dashoffset:1.75;stroke-opacity:0.2"
     d="M 5.423958,8.7312501 A 0.66145831,0.66145831 0 0 1 4.7624997,9.3927078 0.66145831,0.66145831 0 0 1 4.1010414,8.7312501 0.66145831,0.66145831 0 0 1 4.7624997,8.0697918 0.66145831,0.66145831 0 0 1 5.423958,8.7312501 Z" />
  <path
     id="circle5210"
     style="fill:#dddddd;fill-opacity:1;stroke:#dddddd;stroke-width:0.264583;stroke-linecap:round;stroke-linejoin:round;stroke-miterlimit:4;stroke-dasharray:none;stroke-dashoffset:1.75;stroke-opacity:0.2"
     d="M 4.1010413,7.4083334 A 0.66145831,0.66145831 0 0 1 3.439583,8.0697914 0.66145831,0.66145831 0 0 1 2.7781247,7.4083334 0.66145831,0.66145831 0 0 1 3.439583,6.7468751 0.66145831,0.66145831 0 0 1 4.1010413,7.4083334 Z" />
  <path
     id="circle5214"
     style="fill:#dddddd;fill-opacity:1;stroke:#dddddd;stroke-width:0.264583;stroke-linecap:round;stroke-linejoin:round;stroke-miterlimit:4;stroke-dasharray:none;stroke-dashoffset:1.75;stroke-opacity:0.2"
     d="M 12.038541,8.7312501 A 0.66145831,0.66145831 0 0 1 11.377083,9.3927078 0.66145831,0.66145831 0 0 1 10.715625,8.7312501 0.66145831,0.66145831 0 0 1 11.377083,8.0697918 0.66145831,0.66145831 0 0 1 12.038541,8.7312501 Z" />
  <path
     id="circle5216"
     style="fill:#dddddd;fill-opacity:1;stroke:#dddddd;stroke-width:0.264583;stroke-linecap:round;stroke-linejoin:round;stroke-miterlimit:4;stroke-dasharray:none;stroke-dashoffset:1.75;stroke-opacity:0.2"
     d="M 4.1010414,2.1166664 A 0.66145831,0.66145831 0 0 1 3.4395831,2.7781248 0.66145831,0.66145831 0 0 1 2.7781248,2.1166664 0.66145831,0.66145831 0 0 1 3.4395831,1.4552082 0.66145831,0.66145831 0 0 1 4.1010414,2.1166664 Z" />
  <path
     id="circle5220"
     style="fill:#dddddd;fill-opacity:1;stroke:#dddddd;stroke-width:0.264583;stroke-linecap:round;stroke-linejoin:round;stroke-miterlimit:4;stroke-dasharray:none;stroke-dashoffset:1.75;stroke-opacity:0.2"
     d="M 10.715624,8.7312501 A 0.66145831,0.66145831 0 0 1 10.054166,9.3927078 0.66145831,0.66145831 0 0 1 9.3927075,8.7312501 0.66145831,0.66145831 0 0 1 10.054166,8.0697921 0.66145831,0.66145831 0 0 1 10.715624,8.7312501 Z" />
  <path
     id="circle5222"
     style="fill:#dddddd;fill-opacity:1;stroke:#dddddd;stroke-width:0.264583;stroke-linecap:round;stroke-linejoin:round;stroke-miterlimit:4;stroke-dasharray:none;stroke-dashoffset:1.75;stroke-opacity:0.2"
     d="M 4.1010413,8.7312501 A 0.66145831,0.66145831 0 0 1 3.439583,9.3927078 0.66145831,0.66145831 0 0 1 2.7781247,8.7312501 0.66145831,0.66145831 0 0 1 3.439583,8.0697921 0.66145831,0.66145831 0 0 1 4.1010413,8.7312501 Z" />
  <path
     id="circle5224"
     style="fill:#dddddd;fill-opacity:1;stroke:#dddddd;stroke-width:0.264583;stroke-linecap:round;stroke-linejoin:round;stroke-miterlimit:4;stroke-dasharray:none;stroke-dashoffset:1.75;stroke-opacity:0.2"
     d="m 8.0697925,11.377083 a 0.66145831,0.66145831 0 0 1 -0.661459,0.661458 0.66145831,0.66145831 0 0 1 -0.661459,-0.661458 0.66145831,0.66145831 0 0 1 0.661459,-0.661458 0.66145831,0.66145831 0 0 1 0.661459,0.661458 z" />
  <path
     id="circle5228"
     style="fill:#dddddd;fill-opacity:1;stroke:#dddddd;stroke-width:0.264583;stroke-linecap:round;stroke-linejoin:round;stroke-miterlimit:4;stroke-dasharray:none;stroke-dashoffset:1.75;stroke-opacity:0.2"
     d="M 6.7468745,12.7 A 0.66145831,0.66145831 0 0 1 6.0854163,13.361458 0.66145831,0.66145831 0 0 1 5.423958,12.7 0.66145831,0.66145831 0 0 1 6.0854163,12.038542 0.66145831,0.66145831 0 0 1 6.7468745,12.7 Z" />
  <path
     id="circle5232"
     style="fill:#dddddd;fill-opacity:1;stroke:#dddddd;stroke-width:0.264583;stroke-linecap:round;stroke-linejoin:round;stroke-miterlimit:4;stroke-dasharray:none;stroke-dashoffset:1.75;stroke-opacity:0.2"
     d="M 12.038541,12.7 A 0.66145831,0.66145831 0 0 1 11.377083,13.361458 0.66145831,0.66145831 0 0 1 10.715625,12.7 0.66145831,0.66145831 0 0 1 11.377083,12.038542 0.66145831,0.66145831 0 0 1 12.038541,12.7 Z" />
  <path
     id="circle5234"
     style="fill:#dddddd;fill-opacity:1;stroke:#dddddd;stroke-width:0.264583;stroke-linecap:round;stroke-linejoin:round;stroke-miterlimit:4;stroke-dasharray:none;stroke-dashoffset:1.75;stroke-opacity:0.2"
     d="m 8.0697925,12.699999 a 0.66145831,0.66145831 0 0 1 -0.661459,0.661458 0.66145831,0.66145831 0 0 1 -0.661459,-0.661458 0.66145831,0.66145831 0 0 1 0.661459,-0.661458 0.66145831,0.66145831 0 0 1 0.661459,0.661458 z" />
  <path
     id="circle5236"
     style="fill:#dddddd;fill-opacity:1;stroke:#dddddd;stroke-width:0.264583;stroke-linecap:round;stroke-linejoin:round;stroke-miterlimit:4;stroke-dasharray:none;stroke-dashoffset:1.75;stroke-opacity:0.2"
     d="M 2.7781247,12.699999 A 0.66145831,0.66145831 0 0 1 2.1166664,13.361457 0.66145831,0.66145831 0 0 1 1.4552081,12.699999 0.66145831,0.66145831 0 0 1 2.1166664,12.038541 0.66145831,0.66145831 0 0 1 2.7781247,12.699999 Z" />
  <path
     id="circle5238"
     style="fill:#dddddd;fill-opacity:1;stroke:#dddddd;stroke-width:0.264583;stroke-linecap:round;stroke-linejoin:round;stroke-miterlimit:4;stroke-dasharray:none;stroke-dashoffset:1.75;stroke-opacity:0.2"
     d="M 13.361456,12.7 A 0.66145831,0.66145831 0 0 1 12.699998,13.361458 0.66145831,0.66145831 0 0 1 12.038541,12.7 0.66145831,0.66145831 0 0 1 12.699998,12.038542 0.66145831,0.66145831 0 0 1 13.361456,12.7 Z" />
</svg>
